<mxfile host="app.diagrams.net" modified="2023-10-23T06:12:00.402Z" agent="Mozilla/5.0 (Windows NT 10.0; Win64; x64) AppleWebKit/537.36 (KHTML, like Gecko) Chrome/118.0.0.0 Safari/537.36" version="22.0.6" etag="j3xbSz8zvFbt8dD-7qLo" type="github">
  <diagram name="第 1 页" id="5SOqG-WJpnOGDw4f-pBW">
    <mxGraphModel>
      <root>
        <mxCell id="0" />
        <mxCell id="1" parent="0" />
      </root>
    </mxGraphModel>
  </diagram>
</mxfile>
